<?xml version="1.0" encoding="UTF-8"?>
<svg xmlns="http://www.w3.org/2000/svg" xmlns:xlink="http://www.w3.org/1999/xlink" width="800px" height="800px" viewBox="0 0 800 800" version="1.1">
<g id="surface1">
<path style=" stroke:none;fill-rule:nonzero;fill:rgb(100%,79.607843%,29.803922%);fill-opacity:1;" d="M 777.777344 378.179688 C 777.777344 586.820312 608.640625 755.957031 400 755.957031 C 191.359375 755.957031 22.222656 586.820312 22.222656 378.179688 C 22.222656 169.535156 191.359375 0.398438 400 0.398438 C 608.640625 0.398438 777.777344 169.535156 777.777344 378.179688 Z M 777.777344 378.179688 "/>
<path style=" stroke:none;fill-rule:nonzero;fill:rgb(39.607843%,27.843137%,10.588235%);fill-opacity:1;" d="M 322.753906 467.464844 C 319.535156 464.890625 317.023438 461.378906 315.820312 457.15625 C 312.84375 446.933594 318.710938 436.753906 328.933594 434.464844 C 429.554688 411.777344 497.3125 464.753906 500.179688 467.023438 C 508.710938 473.820312 510.378906 485.800781 504.023438 493.800781 C 497.667969 501.753906 485.621094 502.710938 477.109375 495.957031 C 474.667969 494.089844 421.042969 453.222656 339.734375 471.554688 C 333.644531 472.910156 327.421875 471.199219 322.753906 467.464844 Z M 322.753906 467.464844 "/>
<path style=" stroke:none;fill-rule:nonzero;fill:rgb(39.607843%,27.843137%,10.588235%);fill-opacity:1;" d="M 338.753906 248.3125 C 338.753906 215.714844 317.613281 189.289062 291.535156 189.289062 C 265.453125 189.289062 244.3125 215.714844 244.3125 248.3125 C 244.3125 280.90625 265.453125 307.332031 291.535156 307.332031 C 317.613281 307.332031 338.753906 280.90625 338.753906 248.3125 Z M 338.753906 248.3125 "/>
<path style=" stroke:none;fill-rule:nonzero;fill:rgb(39.607843%,27.843137%,10.588235%);fill-opacity:1;" d="M 588.890625 271.910156 C 588.890625 239.3125 567.746094 212.890625 541.667969 212.890625 C 515.585938 212.890625 494.445312 239.3125 494.445312 271.910156 C 494.445312 304.507812 515.585938 330.933594 541.667969 330.933594 C 567.746094 330.933594 588.890625 304.507812 588.890625 271.910156 Z M 588.890625 271.910156 "/>
<path style=" stroke:none;fill-rule:nonzero;fill:rgb(94.509804%,56.470588%,12.54902%);fill-opacity:1;" d="M 383.910156 781.089844 C 383.910156 781.089844 412.023438 771.957031 415.667969 751.042969 C 419.511719 729.445312 401.800781 725.109375 401.800781 725.109375 C 401.800781 725.109375 424.933594 720.488281 427.84375 694.535156 C 430.578125 670.066406 408.710938 664.246094 408.710938 664.246094 C 408.710938 664.246094 430.265625 655.355469 431.289062 630.042969 C 432.132812 608.734375 409.179688 598.3125 409.179688 598.3125 C 409.179688 598.3125 521.132812 571.179688 532.644531 568.511719 C 544.109375 565.84375 561.976562 554.84375 556.398438 530.867188 C 550.867188 506.867188 529.644531 506.023438 518.6875 508.578125 C 507.710938 511.132812 368.820312 543.378906 320.910156 554.535156 L 288.933594 561.957031 C 276.933594 564.777344 271.488281 559.511719 279.957031 550.578125 C 291.246094 538.667969 298.464844 525.488281 300.976562 503.621094 C 303.621094 480.621094 295.820312 452.222656 291.355469 441.199219 C 283.042969 420.734375 269.023438 404.554688 252.820312 399 C 227.554688 390.332031 209.601562 406.132812 218.554688 433.6875 C 231.976562 474.890625 223.179688 508.6875 200.042969 529.089844 C 145.621094 577.023438 120.3125 611.199219 137.15625 684.042969 C 155.554688 763.488281 234.421875 814.621094 313.867188 796.222656 Z M 383.910156 781.089844 "/>
<path style=" stroke:none;fill-rule:nonzero;fill:rgb(39.607843%,27.843137%,10.588235%);fill-opacity:1;" d="M 206.578125 141.132812 C 202.933594 139.179688 199.84375 136.15625 197.890625 132.265625 C 193.089844 122.753906 197 111.667969 206.621094 107.554688 C 301.421875 66.867188 377.710938 106.601562 380.910156 108.3125 C 390.535156 113.445312 394.421875 124.910156 389.601562 133.957031 C 384.800781 142.957031 373.15625 146.089844 363.535156 141.023438 C 360.800781 139.621094 300.601562 109.199219 224.023438 142.066406 C 218.3125 144.488281 211.867188 143.957031 206.578125 141.132812 Z M 476.246094 224.464844 C 472.777344 222.289062 469.890625 219.066406 468.199219 215.042969 C 464.042969 205.222656 468.710938 194.445312 478.601562 190.957031 C 575.957031 156.820312 649.378906 201.621094 652.445312 203.554688 C 661.667969 209.332031 664.777344 221.042969 659.378906 229.734375 C 654 238.398438 642.132812 240.734375 632.910156 235.023438 C 630.246094 233.421875 572.3125 199 493.644531 226.601562 C 487.734375 228.621094 481.355469 227.621094 476.246094 224.464844 Z M 476.246094 224.464844 "/>
</g>
</svg>
